<?xml version="1.0" encoding="UTF-8"?>
<svg id="Layer_2" data-name="Layer 2" xmlns="http://www.w3.org/2000/svg" viewBox="0 0 583.14 479.42">
  <defs>
    <style>
      .cls-1 {
        fill: #a71e22;
      }

      .cls-2 {
        fill: #9c1f24;
      }

      .cls-3 {
        fill: #a11f23;
      }

      .cls-4 {
        fill: #c91c1a;
      }

      .cls-5 {
        fill: #a01f23;
      }

      .cls-6 {
        fill: #d61c18;
      }

      .cls-7 {
        fill: #a61e22;
      }

      .cls-8 {
        fill: #d31c18;
      }

      .cls-9 {
        fill: #cc1c1a;
      }

      .cls-10 {
        fill: #be1d1d;
      }

      .cls-11 {
        fill: #cb1c1a;
      }

      .cls-12 {
        fill: #d01c19;
      }

      .cls-13 {
        fill: #e01b15;
      }

      .cls-14 {
        fill: #ac1e21;
      }

      .cls-15 {
        fill: #a41f22;
      }

      .cls-16 {
        fill: #a91e21;
      }

      .cls-17 {
        fill: #ab1e21;
      }

      .cls-18 {
        fill: #c01d1c;
      }

      .cls-19 {
        fill: #af1e20;
      }

      .cls-20 {
        fill: #a21f23;
      }

      .cls-21 {
        fill: #bf1d1d;
      }

      .cls-22 {
        fill: #9f1f23;
      }

      .cls-23 {
        fill: #a81e21;
      }

      .cls-24 {
        fill: #aa1e21;
      }

      .cls-25 {
        fill: #c41d1b;
      }

      .cls-26 {
        fill: #d71c17;
      }

      .cls-27 {
        fill: #da1b17;
      }

      .cls-28 {
        fill: #b21e1f;
      }

      .cls-29 {
        fill: #db1b16;
      }

      .cls-30 {
        fill: #b01e20;
      }

      .cls-31 {
        fill: #c71d1b;
      }

      .cls-32 {
        fill: #d81c17;
      }

      .cls-33 {
        fill: #cd1c19;
      }

      .cls-34 {
        fill: #bd1d1d;
      }

      .cls-35 {
        fill: #d91c17;
      }

      .cls-36 {
        fill: #bc1d1d;
      }

      .cls-37 {
        fill: #d41c18;
      }

      .cls-38 {
        fill: #df1b16;
      }

      .cls-39 {
        fill: #b91d1e;
      }

      .cls-40 {
        fill: #ae1e20;
      }

      .cls-41 {
        fill: #c51d1b;
      }

      .cls-42 {
        fill: #a51e22;
      }

      .cls-43 {
        fill: #ba1d1e;
      }

      .cls-44 {
        fill: #dd1b16;
      }

      .cls-45 {
        fill: #ca1c1a;
      }

      .cls-46 {
        fill: #de1b16;
      }

      .cls-47 {
        fill: #9d1f24;
      }

      .cls-48 {
        fill: #c31d1c;
      }

      .cls-49 {
        fill: #c21d1c;
      }

      .cls-50 {
        fill: #d21c18;
      }

      .cls-51 {
        fill: #e11b15;
      }

      .cls-52 {
        fill: #a31f23;
      }

      .cls-53 {
        fill: #d11c19;
      }

      .cls-54 {
        fill: #ce1c19;
      }

      .cls-55 {
        fill: #e21b15;
      }

      .cls-56 {
        fill: #b61e1f;
      }

      .cls-57 {
        fill: #b41e1f;
      }

      .cls-58 {
        fill: #b51e1f;
      }

      .cls-59 {
        fill: #c81c1a;
      }

      .cls-60 {
        fill: #9e1f24;
      }

      .cls-61 {
        fill: #d51c18;
      }

      .cls-62 {
        fill: #cf1c19;
      }

      .cls-63 {
        fill: #b11e20;
      }

      .cls-64 {
        fill: #b71d1e;
      }

      .cls-65 {
        fill: #bb1d1d;
      }

      .cls-66 {
        fill: #ad1e20;
      }

      .cls-67 {
        fill: #c61d1b;
      }

      .cls-68 {
        fill: #b81d1e;
      }

      .cls-69 {
        fill: #bf1d1c;
      }

      .cls-70 {
        fill: #dc1b16;
      }

      .cls-71 {
        fill: #b31e1f;
      }

      .cls-72 {
        fill: #c11d1c;
      }
    </style>
  </defs>
  <g id="Red_Heart" data-name="Red Heart">
    <g>
      <path class="cls-2" d="M291.59,473.54c113.27-58.04,233.15-152.54,275.26-266.57,5.92-16.03,9.14-39.17,9.14-57.11,0-92.13-65.36-148.16-163.87-143.67-47.62,2.17-94.77,33.31-120.54,68.38C264.47,40.84,218.67,8.58,171.06,6.19,72.54,1.24,7.19,59.56,7.19,149.86c0,17.94,3.22,41.08,9.14,57.11,42.12,114.02,164.25,210.09,275.27,266.57ZM9.37,206.14C3.3,189.7,0,165.98,0,147.59,0,55.01,67-4.77,168,.3c48.81,2.45,95.76,27.26,123.58,61.85C317.99,26.2,366.33,2.52,415.15.3c100.99-4.6,168,52.83,168,147.29,0,18.39-3.3,42.12-9.37,58.55-43.17,116.89-166.07,213.78-282.2,273.28C177.75,421.52,52.55,323.03,9.37,206.14Z"/>
      <path class="cls-47" d="M16.68,207.1c-5.91-16-9.13-39.24-9.13-57.15C7.55,59.8,72.82,1.63,171.21,6.58c47.55,2.39,93.29,34.65,120.38,68.33,25.74-35.01,72.82-66.16,120.39-68.33,98.38-4.48,163.66,51.39,163.66,143.37,0,17.91-3.22,41.14-9.13,57.15-42.06,113.84-161.78,208.2-274.91,266.14C180.72,416.85,58.75,320.94,16.68,207.1ZM13.34,206.65c-5.98-16.2-9.24-39.6-9.24-57.73C4.11,57.66,70.16-1.29,169.74,3.71c48.12,2.42,94.42,26.88,121.83,60.98,26.05-35.44,73.7-58.78,121.84-60.98,99.57-4.54,165.63,52.09,165.63,145.21,0,18.13-3.26,41.52-9.24,57.73-42.56,115.25-163.73,210.77-278.22,269.44C179.36,419,55.92,321.9,13.34,206.65Z"/>
      <path class="cls-60" d="M17.03,207.22c-5.9-15.98-9.11-39.3-9.11-57.18C7.92,60.03,73.1,2.02,171.36,6.96c47.49,2.39,93.17,34.66,120.23,68.28,25.7-34.95,72.73-66.12,120.23-68.28,98.26-4.48,163.45,51.24,163.45,143.08,0,17.88-3.21,41.2-9.12,57.18-42.01,113.66-161.58,207.87-274.56,265.72C180.86,416.64,59.04,320.88,17.03,207.22ZM17.32,207.17c-5.9-15.97-9.11-39.03-9.11-56.9C8.21,60.3,73.33,2.2,171.48,7.13c47.44,2.38,93.07,26.49,120.09,60.1,25.68-34.94,72.65-57.94,120.1-60.1,98.15-4.47,163.26,51.34,163.26,143.14,0,17.87-3.21,40.93-9.11,56.9-41.96,113.6-161.39,207.76-274.25,265.59C180.96,416.48,59.28,320.77,17.32,207.17Z"/>
      <path class="cls-22" d="M17.38,207.35c-5.9-15.95-9.1-39.36-9.1-57.22C8.28,60.27,73.38,2.41,171.52,7.34c47.43,2.38,93.05,34.67,120.08,68.24,25.67-34.9,72.64-66.08,120.08-68.24,98.13-4.47,163.24,51.1,163.24,142.79,0,17.85-3.21,41.26-9.11,57.22-41.95,113.48-161.37,207.53-274.21,265.29C181,416.43,59.34,320.83,17.38,207.35ZM21.29,207.68c-5.81-15.74-8.97-38.46-8.97-56.08C12.32,62.95,76.49,5.68,173.22,10.54c46.75,2.35,91.72,26.11,118.35,59.23,25.31-34.43,71.6-57.1,118.36-59.23,96.72-4.41,160.9,50.6,160.9,141.06,0,17.61-3.16,40.34-8.98,56.08-41.35,111.95-159.06,204.75-270.27,261.74C182.56,413.96,62.65,319.64,21.29,207.68Z"/>
      <path class="cls-5" d="M17.73,207.47c-5.89-15.93-9.09-39.43-9.09-57.25C8.64,60.5,73.66,2.8,171.67,7.73c47.37,2.38,92.93,34.67,119.92,68.19,25.64-34.84,72.54-66.03,119.92-68.19,98.01-4.46,163.03,50.95,163.03,142.5,0,17.82-3.21,41.33-9.1,57.25-41.9,113.3-161.16,207.2-273.86,264.87C181.14,416.22,59.64,320.77,17.73,207.47ZM25.27,208.2c-5.73-15.51-8.84-37.9-8.84-55.25C16.43,65.59,79.65,9.17,174.96,13.96c46.06,2.31,90.37,25.73,116.61,58.36,24.93-33.93,70.54-56.26,116.61-58.36,95.3-4.34,158.53,49.86,158.53,138.99,0,17.35-3.12,39.74-8.85,55.25-40.74,110.31-156.72,201.74-266.3,257.89C184.17,411.45,66.02,318.51,25.27,208.2Z"/>
      <path class="cls-3" d="M18.08,207.6c-5.88-15.9-9.08-39.49-9.08-57.29C9.01,60.73,73.94,3.19,171.83,8.11c47.31,2.38,92.81,34.68,119.77,68.15,25.61-34.79,72.45-65.99,119.77-68.15,97.88-4.46,162.82,50.8,162.82,142.2,0,17.8-3.2,41.39-9.09,57.29-41.85,113.12-160.96,206.87-273.51,264.44C181.28,416.02,59.94,320.72,18.08,207.6ZM29.24,208.71c-5.64-15.28-8.71-37.33-8.71-54.43C20.53,68.23,82.81,12.66,176.7,17.37c45.37,2.28,89.02,25.34,114.87,57.49,24.56-33.42,69.49-55.42,114.87-57.49,93.88-4.28,156.16,49.11,156.16,136.91,0,17.09-3.07,39.15-8.71,54.43-40.13,108.66-154.38,198.73-262.32,254.04-105.8-53.82-222.19-145.38-262.33-254.04Z"/>
      <path class="cls-20" d="M18.44,207.73c-5.87-15.88-9.07-39.56-9.07-57.32C9.37,60.97,74.22,3.58,171.98,8.49c47.25,2.37,92.69,34.69,119.61,68.1,25.57-34.73,72.36-65.95,119.62-68.1,97.75-4.45,162.61,50.66,162.61,141.91,0,17.77-3.2,41.45-9.07,57.32-41.79,112.93-160.75,206.54-273.15,264.02C181.42,415.81,60.23,320.66,18.44,207.73ZM33.22,209.23c-5.56-15.04-8.58-36.77-8.58-53.6,0-84.75,61.34-139.48,153.8-134.84,44.69,2.24,87.67,24.96,113.13,56.62,24.19-32.91,68.44-54.58,113.13-56.62,92.46-4.21,153.8,48.37,153.8,134.84,0,16.84-3.02,38.56-8.58,53.6-39.52,107.02-152.04,195.72-258.35,250.19-104.2-53.01-218.82-143.17-258.35-250.19Z"/>
      <path class="cls-52" d="M18.79,207.85c-5.87-15.85-9.06-39.62-9.06-57.36C9.73,61.2,74.5,3.97,172.13,8.87c47.18,2.37,92.58,34.7,119.46,68.05,25.54-34.68,72.27-65.9,119.46-68.05,97.63-4.45,162.4,50.51,162.4,141.62,0,17.74-3.19,41.51-9.06,57.36-41.74,112.75-160.54,206.2-272.8,263.59C181.57,415.6,60.53,320.6,18.79,207.85ZM37.19,209.74c-5.47-14.81-8.45-36.2-8.45-52.78,0-83.45,60.39-137.34,151.43-132.77,44,2.21,86.32,24.57,111.39,55.75,23.82-32.41,67.38-53.74,111.39-55.75,91.03-4.15,151.43,47.62,151.43,132.77,0,16.58-2.98,37.96-8.45,52.78-38.92,105.37-149.7,192.71-254.37,246.34-102.6-52.19-215.45-140.97-254.38-246.34Z"/>
      <path class="cls-15" d="M19.14,207.98c-5.86-15.82-9.04-39.68-9.04-57.39C10.09,61.44,74.78,4.36,172.29,9.26c47.12,2.37,92.46,34.7,119.31,68.01,25.51-34.62,72.17-65.86,119.31-68.01,97.5-4.44,162.19,50.37,162.19,141.33,0,17.71-3.19,41.57-9.05,57.39-41.68,112.57-160.34,205.87-272.45,263.17C181.71,415.39,60.83,320.55,19.14,207.98ZM41.17,210.26c-5.39-14.58-8.31-35.64-8.31-51.95,0-82.14,59.45-135.19,149.07-130.69,43.31,2.18,84.97,24.19,109.65,54.88,23.45-31.9,66.33-52.9,109.65-54.88,89.61-4.08,149.07,46.88,149.07,130.69,0,16.32-2.93,37.37-8.32,51.95-38.31,103.72-147.36,189.69-250.4,242.49-100.99-51.38-212.09-138.77-250.4-242.49Z"/>
      <path class="cls-42" d="M19.49,208.1c-5.85-15.8-9.03-39.75-9.03-57.43C10.46,61.67,75.06,4.75,172.44,9.64c47.06,2.36,92.34,34.71,119.15,67.96,25.47-34.56,72.08-65.82,119.15-67.96,97.38-4.43,161.98,50.22,161.98,141.03,0,17.68-3.19,41.63-9.04,57.43-41.63,112.39-160.13,205.54-272.1,262.74C181.85,415.18,61.13,320.49,19.49,208.1ZM45.14,210.77c-5.3-14.35-8.18-35.07-8.18-51.13,0-80.84,58.51-133.05,146.7-128.62,42.62,2.14,83.63,23.81,107.91,54.01,23.07-31.39,65.28-52.06,107.91-54.01,88.19-4.02,146.7,46.14,146.7,128.62,0,16.06-2.88,36.78-8.19,51.13-37.7,102.08-145.02,186.68-246.43,238.64-99.39-50.56-208.72-136.57-246.43-238.64Z"/>
      <path class="cls-7" d="M19.84,208.23c-5.84-15.77-9.02-39.81-9.02-57.46C10.82,61.91,75.34,5.14,172.59,10.02c47,2.36,92.22,34.72,119,67.91,25.44-34.51,71.99-65.77,119-67.91,97.25-4.43,161.77,50.08,161.77,140.74,0,17.65-3.18,41.69-9.03,57.46-41.58,112.21-159.92,205.21-271.75,262.32C181.99,414.97,61.42,320.44,19.84,208.23ZM49.12,211.29c-5.21-14.12-8.05-34.5-8.05-50.3,0-79.53,57.56-130.9,144.33-126.54,41.94,2.11,82.28,23.42,106.17,53.14,22.7-30.89,64.23-51.22,106.17-53.14,86.77-3.95,144.33,45.39,144.33,126.54,0,15.8-2.84,36.19-8.05,50.3-37.09,100.43-142.68,183.67-242.45,234.79-97.79-49.75-205.35-134.36-242.46-234.79Z"/>
      <path class="cls-1" d="M20.19,208.36c-5.84-15.75-9.01-39.88-9.01-57.5C11.18,62.14,75.62,5.53,172.75,10.41c46.94,2.36,92.1,34.73,118.84,67.87,25.41-34.45,71.89-65.73,118.85-67.87,97.13-4.42,161.57,49.93,161.57,140.45,0,17.62-3.18,41.75-9.01,57.5-41.52,112.03-159.72,204.87-271.4,261.9C182.13,414.76,61.72,320.38,20.19,208.36ZM53.09,211.8c-5.13-13.89-7.92-33.94-7.92-49.48,0-78.23,56.62-128.76,141.97-124.47,41.25,2.07,80.93,23.04,104.43,52.26,22.33-30.38,63.17-50.38,104.43-52.26,85.34-3.89,141.97,44.65,141.97,124.47,0,15.54-2.79,35.59-7.92,49.48-36.48,98.78-140.34,180.66-238.48,230.94-96.18-48.93-201.99-132.16-238.48-230.94Z"/>
      <path class="cls-23" d="M20.54,208.48c-5.83-15.72-9-39.94-9-57.53C11.55,62.38,75.9,5.92,172.9,10.79c46.88,2.35,91.98,34.73,118.69,67.82,25.38-34.4,71.8-65.69,118.69-67.82,97-4.42,161.36,49.78,161.36,140.16,0,17.6-3.17,41.81-9,57.53-41.47,111.84-159.51,204.54-271.04,261.47C182.27,414.55,62.02,320.33,20.54,208.48ZM57.07,212.32c-5.04-13.66-7.79-33.37-7.79-48.65,0-76.93,55.68-126.61,139.6-122.39,40.56,2.04,79.58,22.65,102.69,51.39,21.96-29.87,62.12-49.55,102.69-51.39,83.92-3.82,139.6,43.9,139.6,122.39,0,15.28-2.74,35-7.79,48.65-35.88,97.14-138,177.65-234.5,227.1-94.58-48.12-198.62-129.96-234.51-227.1Z"/>
      <path class="cls-16" d="M20.89,208.61c-5.82-15.7-8.99-40-8.99-57.57C11.91,62.61,76.18,6.31,173.05,11.17c46.82,2.35,91.86,34.74,118.54,67.77,25.34-34.34,71.71-65.64,118.54-67.77,96.87-4.41,161.15,49.64,161.15,139.86,0,17.57-3.17,41.87-8.99,57.57-41.42,111.66-159.3,204.21-270.69,261.05C182.42,414.34,62.32,320.27,20.89,208.61ZM61.04,212.84c-4.96-13.42-7.65-32.81-7.65-47.83,0-75.62,54.73-124.46,137.24-120.32,39.87,2,78.23,22.27,100.95,50.52,21.58-29.37,61.07-48.71,100.95-50.52,82.5-3.76,137.24,43.16,137.24,120.32,0,15.02-2.7,34.41-7.66,47.83-35.27,95.49-135.66,174.64-230.53,223.25-92.98-47.3-195.26-127.76-230.53-223.25Z"/>
      <path class="cls-24" d="M21.25,208.73c-5.81-15.67-8.97-40.07-8.97-57.61C12.27,62.85,76.46,6.7,173.21,11.56c46.76,2.35,91.74,34.75,118.38,67.73,25.31-34.28,71.61-65.6,118.38-67.73,96.75-4.4,160.94,49.49,160.94,139.57,0,17.54-3.16,41.93-8.98,57.61-41.36,111.48-159.09,203.88-270.34,260.62C182.56,414.14,62.61,320.21,21.25,208.73ZM65.01,213.35c-4.87-13.19-7.52-32.24-7.52-47.01,0-74.32,53.79-122.32,134.87-118.24,39.19,1.97,76.88,21.89,99.21,49.65,21.21-28.86,60.01-47.87,99.21-49.65,81.08-3.69,134.87,42.42,134.87,118.24,0,14.76-2.65,33.81-7.53,47.01-34.66,93.84-133.33,171.63-226.55,219.4-91.37-46.49-191.89-125.55-226.56-219.4Z"/>
      <path class="cls-17" d="M21.6,208.86c-5.81-15.65-8.96-40.13-8.96-57.64C12.63,63.08,76.73,7.09,173.36,11.94c46.7,2.35,91.62,34.76,118.23,67.68,25.28-34.23,71.52-65.56,118.23-67.68,96.62-4.4,160.73,49.35,160.73,139.28,0,17.51-3.16,41.99-8.97,57.64-41.31,111.3-158.89,203.55-269.99,260.2C182.7,413.93,62.91,320.16,21.6,208.86ZM68.99,213.87c-4.79-12.96-7.39-31.68-7.39-46.18,0-73.01,52.84-120.17,132.5-116.17,38.5,1.93,75.53,21.5,97.47,48.78,20.84-28.36,58.96-47.03,97.47-48.78,79.65-3.63,132.5,41.67,132.5,116.17,0,14.5-2.6,33.22-7.39,46.18-34.05,92.2-130.99,168.62-222.58,215.55-89.77-45.67-188.52-123.35-222.58-215.55Z"/>
      <path class="cls-14" d="M21.95,208.99c-5.8-15.62-8.95-40.19-8.95-57.68C13,63.31,77.01,7.48,173.52,12.32c46.64,2.34,91.5,34.76,118.07,67.64,25.24-34.17,71.43-65.51,118.08-67.64,96.5-4.39,160.52,49.2,160.52,138.99,0,17.48-3.16,42.06-8.96,57.68-41.25,111.12-158.68,203.21-269.64,259.77C182.84,413.72,63.21,320.1,21.95,208.99ZM72.96,214.38c-4.7-12.73-7.26-31.11-7.26-45.36,0-71.71,51.9-118.03,130.14-114.1,37.81,1.9,74.18,21.12,95.73,47.91,20.47-27.85,57.91-46.19,95.73-47.91,78.23-3.56,130.14,40.93,130.14,114.1,0,14.25-2.56,32.63-7.26,45.36-33.44,90.55-128.65,165.61-218.6,211.7-88.17-44.85-185.16-121.15-218.61-211.7Z"/>
      <path class="cls-66" d="M22.3,209.11c-5.79-15.6-8.94-40.26-8.94-57.71C13.36,63.55,77.29,7.87,173.67,12.71c46.58,2.34,91.38,34.77,117.92,67.59,25.21-34.12,71.33-65.47,117.92-67.59,96.37-4.39,160.31,49.05,160.31,138.69,0,17.45-3.15,42.12-8.94,57.71-41.2,110.94-158.47,202.88-269.29,259.35C182.98,413.51,63.51,320.05,22.3,209.11ZM76.94,214.9c-4.62-12.5-7.13-30.55-7.13-44.53,0-70.41,50.96-115.88,127.77-112.02,37.12,1.87,72.84,20.74,93.99,47.04,20.1-27.34,56.86-45.35,93.99-47.04,76.81-3.5,127.77,40.18,127.77,112.02,0,13.99-2.51,32.03-7.13,44.53-32.84,88.91-126.31,162.6-214.63,207.85-86.56-44.04-181.79-118.94-214.63-207.85Z"/>
      <path class="cls-40" d="M22.65,209.24c-5.78-15.57-8.93-40.32-8.93-57.75C13.72,63.78,77.57,8.26,173.82,13.09c46.52,2.34,91.26,34.78,117.77,67.54,25.18-34.06,71.24-65.43,117.77-67.54,96.24-4.38,160.1,48.91,160.1,138.4,0,17.42-3.15,42.18-8.93,57.75-41.15,110.75-158.27,202.55-268.94,258.92C183.12,413.3,63.8,319.99,22.65,209.24ZM80.91,215.41c-4.53-12.27-6.99-29.98-6.99-43.71,0-69.1,50.01-113.73,125.41-109.95,36.44,1.83,71.49,20.35,92.25,46.17,19.72-26.84,55.8-44.51,92.25-46.17,75.39-3.43,125.4,39.44,125.4,109.95,0,13.73-2.46,31.44-7,43.71-32.23,87.26-123.97,159.58-210.65,204-84.96-43.22-178.42-116.74-210.66-204Z"/>
      <path class="cls-19" d="M23,209.36c-5.78-15.54-8.92-40.39-8.92-57.78C14.09,64.02,77.85,8.65,173.98,13.47c46.46,2.33,91.14,34.78,117.61,67.5,25.15-34,71.15-65.38,117.61-67.5,96.12-4.37,159.89,48.76,159.89,138.11,0,17.4-3.14,42.24-8.92,57.78-41.09,110.57-158.06,202.22-268.58,258.5C183.26,413.09,64.1,319.94,23,209.36ZM84.89,215.93c-4.45-12.04-6.86-29.41-6.86-42.88,0-67.8,49.07-111.59,123.04-107.87,35.75,1.8,70.14,19.97,90.51,45.3,19.35-26.33,54.75-43.67,90.51-45.3,73.96-3.37,123.04,38.69,123.04,107.87,0,13.47-2.42,30.85-6.87,42.88-31.62,85.61-121.63,156.57-206.68,200.15-83.36-42.41-175.06-114.54-206.68-200.15Z"/>
      <path class="cls-30" d="M23.35,209.49c-5.77-15.52-8.9-40.45-8.9-57.82C14.45,64.25,78.13,9.04,174.13,13.86c46.39,2.33,91.02,34.79,117.46,67.45,25.11-33.95,71.05-65.34,117.46-67.45,95.99-4.37,159.68,48.62,159.68,137.82,0,17.37-3.14,42.3-8.91,57.82-41.04,110.39-157.85,201.88-268.23,258.07C183.41,412.88,64.4,319.88,23.35,209.49ZM88.86,216.44c-4.36-11.8-6.73-28.85-6.73-42.06,0-66.5,48.13-109.44,120.67-105.8,35.06,1.76,68.79,19.58,88.77,44.43,18.98-25.82,53.7-42.83,88.77-44.43,72.54-3.31,120.67,37.95,120.67,105.8,0,13.21-2.37,30.25-6.73,42.06-31.01,83.97-119.29,153.56-202.71,196.3-81.76-41.59-171.69-112.34-202.71-196.3Z"/>
      <path class="cls-63" d="M23.7,209.62c-5.76-15.49-8.89-40.51-8.89-57.85C14.81,64.49,78.41,9.43,174.28,14.24c46.33,2.33,90.9,34.8,117.3,67.4,25.08-33.89,70.96-65.3,117.31-67.4,95.87-4.36,159.47,48.47,159.47,137.52,0,17.34-3.14,42.36-8.9,57.85-40.98,110.21-157.65,201.55-267.88,257.65C183.55,412.67,64.7,319.82,23.7,209.62ZM92.84,216.96c-4.27-11.57-6.6-28.28-6.6-41.23,0-65.19,47.18-107.3,118.31-103.72,34.37,1.73,67.44,19.2,87.02,43.55,18.61-25.32,52.64-41.99,87.03-43.55,71.12-3.24,118.31,37.21,118.31,103.72,0,12.95-2.33,29.66-6.6,41.23-30.4,82.32-116.95,150.55-198.73,192.45-80.15-40.78-168.32-110.13-198.73-192.45Z"/>
      <path class="cls-28" d="M24.06,209.74c-5.75-15.47-8.88-40.58-8.88-57.89C15.17,64.72,78.69,9.82,174.44,14.62c46.27,2.32,90.79,34.81,117.15,67.36,25.05-33.84,70.87-65.25,117.15-67.36,95.74-4.36,159.26,48.33,159.26,137.23,0,17.31-3.13,42.42-8.89,57.89-40.93,110.03-157.44,201.22-267.53,257.22C183.69,412.47,64.99,319.77,24.06,209.74ZM96.81,217.47c-4.19-11.34-6.47-27.72-6.47-40.41,0-63.89,46.24-105.15,115.94-101.65,33.69,1.69,66.09,18.82,85.28,42.68,18.24-24.81,51.59-41.15,85.29-42.68,69.7-3.18,115.94,36.46,115.94,101.65,0,12.69-2.28,29.07-6.47,40.41-29.8,80.67-114.61,147.54-194.76,188.6-78.55-39.96-164.96-107.93-194.76-188.6Z"/>
      <path class="cls-71" d="M24.41,209.87c-5.75-15.44-8.87-40.64-8.87-57.92C15.54,64.96,78.97,10.21,174.59,15.01c46.21,2.32,90.67,34.81,117,67.31,25.01-33.78,70.77-65.21,117-67.31,95.62-4.35,159.05,48.18,159.05,136.94,0,17.28-3.13,42.48-8.87,57.92-40.88,109.84-157.23,200.89-267.18,256.8C183.83,412.26,65.29,319.71,24.41,209.87ZM100.79,217.99c-4.1-11.11-6.33-27.15-6.33-39.58,0-62.58,45.3-103,113.57-99.57,33,1.66,64.74,18.43,83.54,41.81,17.86-24.31,50.54-40.31,83.55-41.81,68.28-3.11,113.57,35.72,113.57,99.57,0,12.43-2.23,28.47-6.34,39.58-29.19,79.03-112.27,144.53-190.78,184.76-76.95-39.15-161.59-105.73-190.78-184.76Z"/>
      <path class="cls-57" d="M24.76,209.99c-5.74-15.42-8.86-40.71-8.86-57.96C15.9,65.19,79.25,10.6,174.74,15.39c46.15,2.32,90.55,34.82,116.84,67.27,24.98-33.73,70.68-65.16,116.84-67.27,95.49-4.35,158.84,48.03,158.84,136.65,0,17.25-3.12,42.54-8.86,57.96-40.82,109.66-157.03,200.56-266.83,256.37C183.97,412.05,65.59,319.66,24.76,209.99ZM104.76,218.5c-4.02-10.88-6.2-26.59-6.2-38.76,0-61.28,44.35-100.86,111.21-97.5,32.31,1.62,63.39,18.05,81.8,40.94,17.49-23.8,49.49-39.47,81.8-40.94,66.85-3.05,111.21,34.97,111.21,97.5,0,12.17-2.19,27.88-6.21,38.76-28.58,77.38-109.94,141.52-186.81,180.91-75.34-38.33-158.22-103.53-186.81-180.91Z"/>
      <path class="cls-58" d="M25.11,210.12c-5.73-15.39-8.85-40.77-8.85-57.99C16.26,65.43,79.53,10.99,174.9,15.77c46.09,2.31,90.43,34.83,116.69,67.22,24.95-33.67,70.59-65.12,116.69-67.22,95.36-4.34,158.64,47.89,158.64,136.35,0,17.22-3.12,42.6-8.85,57.99-40.77,109.48-156.82,200.22-266.47,255.95-107.47-54.23-225.7-146.47-266.48-255.95ZM108.74,219.02c-3.93-10.65-6.07-26.02-6.07-37.93,0-59.98,43.41-98.71,108.84-95.43,31.62,1.59,62.04,17.66,80.06,40.07,17.12-23.29,48.43-38.63,80.06-40.07,65.43-2.98,108.84,34.23,108.84,95.43,0,11.91-2.14,27.29-6.07,37.93-27.97,75.73-107.6,138.51-182.83,177.06-73.74-37.51-154.86-101.32-182.84-177.06Z"/>
      <path class="cls-56" d="M25.46,210.25c-5.72-15.37-8.83-40.83-8.83-58.03C16.63,65.66,79.81,11.38,175.05,16.16c46.03,2.31,90.31,34.84,116.53,67.17,24.92-33.61,70.5-65.08,116.54-67.17,95.24-4.33,158.43,47.74,158.43,136.06,0,17.2-3.12,42.66-8.84,58.03-40.72,109.3-156.61,199.89-266.12,255.52-107.33-54.14-225.4-146.22-266.13-255.52ZM112.71,219.53c-3.85-10.42-5.94-25.45-5.94-37.11,0-58.67,42.46-96.57,106.48-93.35,30.94,1.55,60.7,17.28,78.32,39.2,16.75-22.79,47.38-37.79,78.32-39.2,64.01-2.92,106.48,33.49,106.48,93.35,0,11.66-2.09,26.69-5.94,37.11-27.36,74.09-105.26,135.5-178.86,173.21-72.14-36.7-151.49-99.12-178.86-173.21Z"/>
      <path class="cls-64" d="M25.81,210.37c-5.72-15.34-8.82-40.9-8.82-58.06C16.99,65.89,80.09,11.77,175.21,16.54c45.97,2.31,90.19,34.84,116.38,67.13,24.88-33.56,70.4-65.03,116.38-67.13,95.11-4.33,158.22,47.6,158.22,135.77,0,17.17-3.11,42.72-8.83,58.06-40.66,109.12-156.41,199.56-265.77,255.1-107.19-54.05-225.11-145.98-265.77-255.1ZM116.69,220.05c-3.76-10.18-5.81-24.89-5.81-36.29,0-57.37,41.52-94.42,104.11-91.28,30.25,1.52,59.35,16.9,76.58,38.33,16.37-22.28,46.33-36.95,76.58-38.33,62.59-2.85,104.11,32.74,104.11,91.28,0,11.4-2.05,26.1-5.81,36.29-26.75,72.44-102.92,132.49-174.88,169.36-70.53-35.88-148.12-96.92-174.89-169.36Z"/>
      <path class="cls-68" d="M26.16,210.5c-5.71-15.31-8.81-40.96-8.81-58.1C17.35,66.13,80.37,12.16,175.36,16.92c45.91,2.3,90.07,34.85,116.23,67.08,24.85-33.5,70.31-64.99,116.23-67.08,94.99-4.32,158.01,47.45,158.01,135.47,0,17.14-3.11,42.79-8.82,58.1-40.61,108.94-156.2,199.23-265.42,254.68-107.05-53.96-224.81-145.74-265.42-254.68ZM120.66,220.56c-3.68-9.95-5.67-24.32-5.67-35.46,0-56.06,40.58-92.27,101.74-89.2,29.56,1.49,58,16.51,74.84,37.46,16-21.77,45.27-36.11,74.84-37.46,61.16-2.79,101.74,32,101.74,89.2,0,11.14-2,25.51-5.68,35.46-26.15,70.8-100.58,129.47-170.91,165.51-68.93-35.07-144.76-94.72-170.91-165.51Z"/>
      <path class="cls-39" d="M26.51,210.62c-5.7-15.29-8.8-41.03-8.8-58.13C17.72,66.36,80.65,12.55,175.51,17.31c45.85,2.3,89.95,34.86,116.07,67.03,24.82-33.45,70.22-64.95,116.07-67.03,94.86-4.32,157.8,47.31,157.8,135.18,0,17.11-3.1,42.85-8.8,58.13-40.55,108.75-155.99,198.89-265.07,254.25-106.91-53.87-224.51-145.5-265.07-254.25ZM124.64,221.08c-3.59-9.72-5.54-23.76-5.54-34.64,0-54.76,39.63-90.13,99.38-87.13,28.87,1.45,56.65,16.13,73.1,36.59,15.63-21.27,44.22-35.27,73.1-36.59,59.74-2.72,99.38,31.25,99.38,87.13,0,10.88-1.95,24.91-5.55,34.64-25.54,69.15-98.24,126.46-166.93,161.66-67.33-34.25-141.39-92.51-166.94-161.66Z"/>
      <path class="cls-43" d="M26.87,210.75c-5.69-15.26-8.79-41.09-8.79-58.17C18.08,66.6,80.93,12.94,175.67,17.69c45.79,2.3,89.83,34.87,115.92,66.99,24.78-33.39,70.12-64.9,115.92-66.99,94.73-4.31,157.59,47.16,157.59,134.89,0,17.08-3.1,42.91-8.79,58.17-40.5,108.57-155.78,198.56-264.72,253.83-106.76-53.78-224.21-145.25-264.72-253.83ZM128.61,221.59c-3.5-9.49-5.41-23.19-5.41-33.81,0-53.46,38.69-87.98,97.01-85.05,28.19,1.42,55.3,15.74,71.36,35.71,15.26-20.76,43.17-34.43,71.36-35.71,58.32-2.66,97.01,30.51,97.01,85.05,0,10.62-1.91,24.32-5.41,33.81-24.93,67.5-95.9,123.45-162.96,157.81-65.72-33.44-138.03-90.31-162.96-157.81Z"/>
      <path class="cls-65" d="M27.22,210.88c-5.69-15.24-8.78-41.15-8.78-58.21C18.44,66.83,81.21,13.33,175.82,18.07c45.73,2.29,89.71,34.87,115.76,66.94,24.75-33.33,70.03-64.86,115.77-66.94,94.61-4.3,157.38,47.01,157.38,134.6,0,17.05-3.09,42.97-8.78,58.21-40.45,108.39-155.58,198.23-264.36,253.4-106.62-53.69-223.91-145.01-264.37-253.4ZM132.58,222.11c-3.42-9.26-5.28-22.63-5.28-32.99,0-52.15,37.75-85.84,94.65-82.98,27.5,1.38,53.95,15.36,69.62,34.84,14.89-20.25,42.12-33.59,69.62-34.84,56.9-2.59,94.65,29.77,94.65,82.98,0,10.36-1.86,23.73-5.28,32.99-24.32,65.86-93.56,120.44-158.98,153.96-64.12-32.62-134.66-88.11-158.99-153.96Z"/>
      <path class="cls-36" d="M27.57,211c-5.68-15.21-8.76-41.22-8.76-58.24C18.8,67.07,81.49,13.72,175.97,18.46c45.66,2.29,89.59,34.88,115.61,66.89,24.72-33.28,69.94-64.82,115.61-66.89,94.48-4.3,157.17,46.87,157.17,134.3,0,17.02-3.09,43.03-8.77,58.24-40.39,108.21-155.37,197.9-264.01,252.98-106.48-53.6-223.62-144.77-264.02-252.98ZM136.56,222.62c-3.33-9.03-5.15-22.06-5.15-32.16,0-50.85,36.8-83.69,92.28-80.9,26.81,1.35,52.6,14.98,67.88,33.97,14.51-19.75,41.06-32.75,67.88-33.97,55.47-2.53,92.28,29.02,92.28,80.9,0,10.1-1.81,23.13-5.15,32.16-23.71,64.21-91.22,117.43-155.01,150.11-62.52-31.81-131.29-85.9-155.01-150.11Z"/>
      <path class="cls-34" d="M27.92,211.13c-5.67-15.19-8.75-41.28-8.75-58.28C19.17,67.3,81.76,14.11,176.13,18.84c45.6,2.29,89.47,34.89,115.46,66.85,24.68-33.22,69.84-64.77,115.46-66.85,94.36-4.29,156.96,46.72,156.96,134.01,0,17-3.09,43.09-8.76,58.28-40.34,108.03-155.16,197.56-263.66,252.55-106.34-53.51-223.32-144.52-263.66-252.55ZM140.53,223.14c-3.25-8.8-5.01-21.49-5.01-31.34,0-49.55,35.86-81.54,89.91-78.83,26.12,1.31,51.25,14.59,66.14,33.1,14.14-19.24,40.01-31.91,66.14-33.1,54.05-2.46,89.91,28.28,89.91,78.83,0,9.84-1.77,22.54-5.02,31.34-23.11,62.56-88.88,114.42-151.04,146.27-60.92-30.99-127.93-83.7-151.04-146.27Z"/>
      <path class="cls-10" d="M28.27,211.25c-5.66-15.16-8.74-41.34-8.74-58.31C19.53,67.54,82.04,14.5,176.28,19.22c45.54,2.29,89.35,34.9,115.3,66.8,24.65-33.17,69.75-64.73,115.3-66.8,94.23-4.29,156.75,46.58,156.75,133.72,0,16.97-3.08,43.15-8.75,58.31-40.29,107.85-154.96,197.23-263.31,252.13-106.2-53.42-223.02-144.28-263.31-252.13ZM144.51,223.66c-3.16-8.56-4.88-20.93-4.88-30.51,0-48.24,34.91-79.4,87.55-76.76,25.44,1.28,49.91,14.21,64.4,32.23,13.77-18.74,38.96-31.07,64.4-32.23,52.63-2.4,87.55,27.53,87.55,76.76,0,9.58-1.72,21.95-4.89,30.51-22.5,60.92-86.54,111.41-147.06,142.42-59.31-30.17-124.56-81.5-147.06-142.42Z"/>
      <path class="cls-21" d="M28.62,211.38c-5.66-15.14-8.73-41.41-8.73-58.35C19.89,67.77,82.32,14.89,176.43,19.61c45.48,2.28,89.23,34.9,115.15,66.76,24.62-33.11,69.66-64.69,115.15-66.76,94.1-4.28,156.54,46.43,156.54,133.43,0,16.94-3.08,43.21-8.73,58.35-40.23,107.66-154.75,196.9-262.96,251.7-106.06-53.33-222.72-144.04-262.96-251.7ZM148.48,224.17c-3.08-8.33-4.75-20.36-4.75-29.69,0-46.94,33.97-77.25,85.18-74.68,24.75,1.24,48.56,13.82,62.66,31.36,13.4-18.23,37.9-30.23,62.66-31.36,51.21-2.33,85.18,26.79,85.18,74.68,0,9.32-1.67,21.36-4.75,29.69-21.89,59.27-84.21,108.4-143.09,138.57-57.71-29.36-121.19-79.3-143.09-138.57Z"/>
      <path class="cls-69" d="M28.97,211.51c-5.65-15.11-8.72-41.47-8.72-58.38C20.26,68.01,82.6,15.28,176.59,19.99c45.42,2.28,89.12,34.91,114.99,66.71,24.59-33.06,69.56-64.64,115-66.71,93.98-4.27,156.33,46.29,156.33,133.13,0,16.91-3.07,43.27-8.72,58.38-40.18,107.48-154.54,196.57-262.61,251.28-105.91-53.24-222.42-143.79-262.61-251.28ZM152.46,224.69c-2.99-8.1-4.62-19.8-4.62-28.86,0-45.63,33.03-75.11,82.81-72.61,24.06,1.21,47.21,13.44,60.92,30.49,13.03-17.72,36.85-29.39,60.92-30.49,49.78-2.27,82.81,26.04,82.81,72.61,0,9.07-1.63,20.76-4.62,28.86-21.28,57.62-81.87,105.39-139.11,134.72-56.11-28.54-117.83-77.09-139.11-134.72Z"/>
      <path class="cls-18" d="M29.32,211.63c-5.64-15.08-8.71-41.54-8.71-58.42C20.62,68.24,82.88,15.67,176.74,20.37c45.36,2.28,89,34.92,114.84,66.66,24.55-33,69.47-64.6,114.84-66.66,93.85-4.27,156.12,46.14,156.12,132.84,0,16.88-3.07,43.33-8.71,58.42-40.12,107.3-154.34,196.24-262.26,250.85-105.77-53.15-222.13-143.55-262.26-250.85ZM156.43,225.2c-2.91-7.87-4.49-19.23-4.49-28.04,0-44.33,32.08-72.96,80.45-70.53,23.37,1.17,45.86,13.06,59.18,29.62,12.65-17.22,35.8-28.55,59.18-29.62,48.36-2.2,80.45,25.3,80.45,70.53,0,8.81-1.58,20.17-4.49,28.04-20.67,55.98-79.53,102.37-135.14,130.87-54.5-27.73-114.46-74.89-135.14-130.87Z"/>
      <path class="cls-72" d="M29.68,211.76c-5.63-15.06-8.69-41.6-8.69-58.45,0-84.83,62.18-137.25,155.91-132.55,45.3,2.27,88.88,34.93,114.69,66.62,24.52-32.94,69.38-64.56,114.69-66.62,93.73-4.26,155.91,45.99,155.91,132.55,0,16.85-3.07,43.39-8.7,58.45-40.07,107.12-154.13,195.9-261.9,250.43-105.63-53.06-221.83-143.31-261.91-250.43ZM160.41,225.72c-2.82-7.64-4.35-18.67-4.35-27.21,0-43.03,31.14-70.82,78.08-68.46,22.69,1.14,44.51,12.67,57.44,28.75,12.28-16.71,34.75-27.71,57.44-28.75,46.94-2.14,78.08,24.56,78.08,68.46,0,8.55-1.53,19.58-4.36,27.21-20.07,54.33-77.19,99.36-131.16,127.02-52.9-26.91-111.09-72.69-131.16-127.02Z"/>
      <path class="cls-49" d="M30.03,211.88c-5.63-15.03-8.68-41.66-8.68-58.49,0-84.69,62.1-136.95,155.7-132.26,45.24,2.27,88.76,34.93,114.53,66.57,24.49-32.89,69.28-64.51,114.53-66.57,93.6-4.26,155.7,45.85,155.7,132.26,0,16.82-3.06,43.45-8.69,58.49-40.02,106.94-153.92,195.57-261.55,250-105.49-52.97-221.53-143.07-261.55-250ZM164.38,226.23c-2.74-7.41-4.22-18.1-4.22-26.39,0-41.72,30.2-68.67,75.72-66.38,22,1.11,43.16,12.29,55.7,27.87,11.91-16.2,33.69-26.87,55.7-27.87,45.52-2.07,75.72,23.81,75.72,66.38,0,8.29-1.49,18.98-4.23,26.39-19.46,52.68-74.85,96.35-127.19,123.17-51.3-26.1-107.73-70.49-127.19-123.17Z"/>
      <path class="cls-48" d="M30.38,212.01c-5.62-15.01-8.67-41.73-8.67-58.52,0-84.54,62.01-136.65,155.5-131.96,45.18,2.27,88.64,34.94,114.38,66.52,24.45-32.83,69.19-64.47,114.38-66.52,93.48-4.25,155.5,45.7,155.5,131.96,0,16.8-3.06,43.52-8.68,58.52-39.96,106.76-153.72,195.24-261.2,249.58-105.35-52.88-221.23-142.82-261.2-249.58ZM168.36,226.75c-2.65-7.18-4.09-17.54-4.09-25.56,0-40.42,29.25-66.52,73.35-64.31,21.31,1.07,41.81,11.9,53.96,27,11.54-15.7,32.64-26.03,53.96-27,44.09-2.01,73.35,23.07,73.35,64.31,0,8.03-1.44,18.39-4.09,25.56-18.85,51.04-72.51,93.34-123.21,119.32-49.69-25.28-104.36-68.28-123.22-119.32Z"/>
      <path class="cls-25" d="M30.73,212.13c-5.61-14.98-8.66-41.79-8.66-58.56,0-84.4,61.93-136.35,155.29-131.67,45.12,2.26,88.52,34.95,114.23,66.48,24.42-32.78,69.1-64.43,114.23-66.48,93.35-4.24,155.29,45.56,155.29,131.67,0,16.77-3.05,43.58-8.66,58.56-39.91,106.57-153.51,194.91-260.85,249.15-105.2-52.79-220.94-142.58-260.85-249.15ZM172.33,227.26c-2.56-6.94-3.96-16.97-3.96-24.74,0-39.12,28.31-64.38,70.98-62.23,20.62,1.04,40.46,11.52,52.21,26.13,11.16-15.19,31.59-25.19,52.22-26.13,42.67-1.94,70.98,22.32,70.98,62.23,0,7.77-1.4,17.8-3.96,24.74-18.24,49.39-70.17,90.33-119.24,115.47-48.09-24.47-100.99-66.08-119.24-115.47Z"/>
      <path class="cls-41" d="M31.08,212.26c-5.6-14.96-8.65-41.86-8.65-58.59,0-84.25,61.85-136.05,155.08-131.38,45.06,2.26,88.4,34.96,114.07,66.43,24.39-32.72,69.01-64.38,114.07-66.43,93.22-4.24,155.08,45.41,155.08,131.38,0,16.74-3.05,43.64-8.65,58.59-39.86,106.39-153.3,194.57-260.5,248.73-105.06-52.7-220.64-142.34-260.5-248.73ZM176.31,227.78c-2.48-6.71-3.83-16.4-3.83-23.92,0-37.81,27.37-62.23,68.62-60.16,19.94,1,39.12,11.14,50.47,25.26,10.79-14.68,30.53-24.35,50.48-25.26,41.25-1.88,68.62,21.58,68.62,60.16,0,7.51-1.35,17.2-3.83,23.92-17.63,47.75-67.83,87.32-115.26,111.62-46.49-23.65-97.63-63.88-115.27-111.62Z"/>
      <path class="cls-67" d="M31.43,212.39c-5.6-14.93-8.64-41.92-8.64-58.63,0-84.11,61.76-135.75,154.87-131.09,45,2.26,88.28,34.96,113.92,66.39,24.36-32.66,68.91-64.34,113.92-66.39,93.1-4.23,154.87,45.26,154.87,131.09,0,16.71-3.05,43.7-8.64,58.63-39.8,106.21-153.09,194.24-260.15,248.3-104.92-52.61-220.34-142.09-260.15-248.3ZM180.28,228.29c-2.39-6.48-3.69-15.84-3.69-23.09,0-36.51,26.42-60.09,66.25-58.09,19.25.97,37.77,10.75,48.73,24.39,10.42-14.18,29.48-23.51,48.73-24.39,39.83-1.81,66.25,20.84,66.25,58.09,0,7.25-1.3,16.61-3.7,23.09-17.03,46.1-65.49,84.31-111.29,107.77-44.89-22.83-94.26-61.68-111.29-107.77Z"/>
      <path class="cls-31" d="M31.78,212.51c-5.59-14.91-8.62-41.98-8.62-58.66,0-83.97,61.68-135.45,154.66-130.79,44.94,2.25,88.16,34.97,113.76,66.34,24.32-32.61,68.82-64.3,113.77-66.34,92.97-4.23,154.66,45.12,154.66,130.79,0,16.68-3.04,43.76-8.63,58.66-39.75,106.03-152.89,193.91-259.79,247.88-104.78-52.52-220.04-141.85-259.8-247.88ZM184.26,228.81c-2.31-6.25-3.56-15.27-3.56-22.27,0-35.2,25.48-57.94,63.89-56.01,18.56.93,36.42,10.37,46.99,23.52,10.05-13.67,28.43-22.67,46.99-23.52,38.4-1.75,63.89,20.09,63.89,56.01,0,6.99-1.26,16.02-3.57,22.27-16.42,44.45-63.15,81.3-107.31,103.93-43.28-22.02-90.89-59.47-107.32-103.93Z"/>
      <path class="cls-59" d="M32.13,212.64c-5.58-14.88-8.61-42.05-8.61-58.7,0-83.82,61.6-135.15,154.45-130.5,44.87,2.25,88.04,34.98,113.61,66.29,24.29-32.55,68.73-64.25,113.61-66.29,92.85-4.22,154.45,44.97,154.45,130.5,0,16.65-3.04,43.82-8.62,58.7-39.69,105.85-152.68,193.58-259.44,247.46-104.64-52.43-219.74-141.61-259.45-247.46ZM188.23,229.32c-2.22-6.02-3.43-14.71-3.43-21.44,0-33.9,24.53-55.79,61.52-53.94,17.87.9,35.07,9.98,45.25,22.65,9.68-13.17,27.38-21.83,45.25-22.65,36.98-1.69,61.52,19.35,61.52,53.94,0,6.73-1.21,15.42-3.43,21.44-15.81,42.81-60.82,78.29-103.34,100.08-41.68-21.2-87.53-57.27-103.34-100.08Z"/>
      <path class="cls-4" d="M32.49,212.76c-5.57-14.85-8.6-42.11-8.6-58.73,0-83.68,61.51-134.85,154.24-130.21,44.81,2.25,87.92,34.99,113.46,66.25,24.26-32.5,68.63-64.21,113.46-66.25,92.72-4.21,154.24,44.83,154.24,130.21,0,16.62-3.03,43.88-8.61,58.73-39.64,105.67-152.47,193.24-259.09,247.03-104.5-52.34-219.45-141.36-259.09-247.03ZM192.2,229.84c-2.14-5.79-3.3-14.14-3.3-20.62,0-32.6,23.59-53.65,59.15-51.86,17.19.86,33.72,9.6,43.51,21.78,9.3-12.66,26.32-20.99,43.51-21.78,35.56-1.62,59.15,18.6,59.15,51.86,0,6.48-1.16,14.83-3.3,20.62-15.2,41.16-58.48,75.28-99.37,96.23-40.08-20.39-84.16-55.07-99.37-96.23Z"/>
      <path class="cls-45" d="M32.84,212.89c-5.57-14.83-8.59-42.17-8.59-58.77,0-83.54,61.43-134.55,154.03-129.92,44.75,2.24,87.8,34.99,113.3,66.2,24.22-32.44,68.54-64.17,113.3-66.2,92.59-4.21,154.03,44.68,154.03,129.92,0,16.6-3.03,43.94-8.59,58.77-39.59,105.48-152.27,192.91-258.74,246.61-104.35-52.25-219.15-141.12-258.74-246.61ZM196.18,230.35c-2.05-5.56-3.17-13.58-3.17-19.79,0-31.29,22.65-51.5,56.79-49.79,16.5.83,32.37,9.22,41.77,20.91,8.93-12.15,25.27-20.15,41.77-20.91,34.14-1.56,56.79,17.86,56.79,49.79,0,6.22-1.12,14.24-3.17,19.79-14.59,39.51-56.14,72.26-95.39,92.38-38.47-19.57-80.8-52.86-95.39-92.38Z"/>
      <path class="cls-11" d="M33.19,213.02c-5.56-14.8-8.58-42.24-8.58-58.81,0-83.39,61.35-134.26,153.82-129.62,44.69,2.24,87.68,35,113.15,66.15,24.19-32.38,68.45-64.12,113.15-66.15,92.47-4.2,153.82,44.54,153.82,129.62,0,16.57-3.02,44-8.58,58.81-39.53,105.3-152.06,192.58-258.39,246.18-104.21-52.16-218.85-140.88-258.39-246.18ZM200.15,230.87c-1.97-5.32-3.04-13.01-3.04-18.97,0-29.99,21.7-49.36,54.42-47.71,15.81.79,31.02,8.83,40.03,20.03,8.56-11.65,24.22-19.31,40.03-20.03,32.72-1.49,54.42,17.11,54.42,47.71,0,5.96-1.07,13.64-3.04,18.97-13.99,37.87-53.8,69.25-91.42,88.53-36.87-18.76-77.43-50.66-91.42-88.53Z"/>
      <path class="cls-9" d="M33.54,213.14c-5.55-14.78-8.57-42.3-8.57-58.84,0-83.25,61.26-133.96,153.61-129.33,44.63,2.24,87.56,35.01,112.99,66.11,24.16-32.33,68.35-64.08,113-66.11,92.34-4.2,153.61,44.39,153.61,129.33,0,16.54-3.02,44.06-8.57,58.84-39.48,105.12-151.85,192.25-258.04,245.76-104.07-52.07-218.55-140.64-258.04-245.76ZM204.13,231.38c-1.88-5.09-2.9-12.44-2.9-18.14,0-28.68,20.76-47.21,52.06-45.64,15.12.76,29.67,8.45,38.29,19.16,8.19-11.14,23.16-18.47,38.29-19.16,31.29-1.43,52.05,16.37,52.05,45.64,0,5.7-1.02,13.05-2.9,18.14-13.38,36.22-51.46,66.24-87.44,84.68-35.27-17.94-74.06-48.46-87.44-84.68Z"/>
      <path class="cls-33" d="M33.89,213.27c-5.54-14.75-8.55-42.37-8.55-58.88,0-83.1,61.18-133.66,153.4-129.04,44.57,2.23,87.44,35.01,112.84,66.06,24.13-32.27,68.26-64.03,112.84-66.06,92.22-4.19,153.4,44.24,153.4,129.04,0,16.51-3.02,44.12-8.56,58.88-39.43,104.94-151.65,191.92-257.68,245.33-103.93-51.98-218.26-140.39-257.69-245.33ZM208.1,231.9c-1.8-4.86-2.77-11.88-2.77-17.32,0-27.38,19.82-45.06,49.69-43.56,14.44.73,28.32,8.06,36.55,18.29,7.82-10.63,22.11-17.63,36.55-18.29,29.87-1.36,49.69,15.63,49.69,43.56,0,5.44-.98,12.46-2.77,17.32-12.77,34.57-49.12,63.23-83.47,80.83-33.66-17.13-70.7-46.26-83.47-80.83Z"/>
      <path class="cls-54" d="M34.24,213.39c-5.53-14.73-8.54-42.43-8.54-58.91,0-82.96,61.1-133.36,153.19-128.75,44.51,2.23,87.33,35.02,112.69,66.01,24.09-32.22,68.17-63.99,112.69-66.01,92.09-4.18,153.19,44.1,153.19,128.75,0,16.48-3.01,44.18-8.55,58.91-39.37,104.76-151.44,191.58-257.33,244.91-103.79-51.89-217.96-140.15-257.34-244.91ZM212.08,232.41c-1.71-4.63-2.64-11.31-2.64-16.49,0-26.08,18.87-42.92,47.32-41.49,13.75.69,26.98,7.68,34.81,17.42,7.44-10.13,21.06-16.79,34.81-17.42,28.45-1.3,47.32,14.88,47.32,41.49,0,5.18-.93,11.86-2.64,16.49-12.16,32.93-46.78,60.22-79.49,76.98-32.06-16.31-67.33-44.05-79.49-76.98Z"/>
      <path class="cls-62" d="M34.59,213.52c-5.53-14.7-8.53-42.49-8.53-58.95,0-82.82,61.01-133.06,152.98-128.45,44.45,2.23,87.21,35.03,112.53,65.97,24.06-32.16,68.07-63.95,112.53-65.97,91.97-4.18,152.98,43.95,152.98,128.45,0,16.45-3.01,44.25-8.54,58.95-39.32,104.58-151.23,191.25-256.98,244.48-103.65-51.8-217.66-139.91-256.98-244.48ZM216.05,232.93c-1.62-4.4-2.51-10.75-2.51-15.67,0-24.77,17.93-40.77,44.96-39.41,13.06.66,25.63,7.3,33.07,16.55,7.07-9.62,20-15.96,33.07-16.55,27.03-1.23,44.96,14.14,44.96,39.41,0,4.92-.88,11.27-2.51,15.67-11.55,31.28-44.44,57.21-75.52,73.13-30.46-15.5-63.96-41.85-75.52-73.13Z"/>
      <path class="cls-12" d="M34.94,213.65c-5.52-14.68-8.52-42.56-8.52-58.98,0-82.67,60.93-132.76,152.77-128.16,44.39,2.22,87.09,35.04,112.38,65.92,24.03-32.11,67.98-63.9,112.38-65.92,91.84-4.17,152.77,43.81,152.77,128.16,0,16.42-3,44.31-8.52,58.98-39.26,104.39-151.03,190.92-256.63,244.06-103.5-51.71-217.36-139.66-256.63-244.06ZM220.03,233.44c-1.54-4.17-2.38-10.18-2.38-14.84,0-23.47,16.99-38.63,42.59-37.34,12.37.62,24.28,6.91,31.33,15.68,6.7-9.11,18.95-15.12,31.33-15.68,25.6-1.17,42.59,13.39,42.59,37.34,0,4.66-.84,10.68-2.38,14.84-10.95,29.64-42.1,54.2-71.54,69.28-28.85-14.68-60.6-39.65-71.54-69.28Z"/>
      <path class="cls-53" d="M35.3,213.77c-5.51-14.65-8.51-42.62-8.51-59.02,0-82.53,60.84-132.46,152.56-127.87,44.33,2.22,86.97,35.04,112.22,65.88,23.99-32.05,67.89-63.86,112.23-65.88,91.71-4.17,152.57,43.66,152.57,127.87,0,16.4-3,44.37-8.51,59.02-39.21,104.21-150.82,190.59-256.28,243.63-103.36-51.62-217.06-139.42-256.28-243.63ZM224,233.96c-1.45-3.93-2.24-9.62-2.24-14.02,0-22.17,16.04-36.48,40.22-35.27,11.69.59,22.93,6.53,29.59,14.81,6.33-8.61,17.9-14.28,29.59-14.81,24.18-1.1,40.22,12.65,40.22,35.27,0,4.4-.79,10.08-2.24,14.02-10.34,27.99-39.76,51.19-67.57,65.43-27.25-13.86-57.23-37.45-67.57-65.43Z"/>
      <path class="cls-50" d="M35.65,213.9c-5.5-14.62-8.5-42.69-8.5-59.05,0-82.38,60.76-132.16,152.36-127.57,44.27,2.22,86.85,35.05,112.07,65.83,23.96-31.99,67.79-63.82,112.07-65.83,91.59-4.16,152.36,43.52,152.36,127.57,0,16.37-3,44.43-8.5,59.05-39.16,104.03-150.61,190.25-255.93,243.21-103.22-51.53-216.77-139.18-255.93-243.21ZM227.98,234.47c-1.37-3.7-2.11-9.05-2.11-13.19,0-20.86,15.1-34.33,37.86-33.19,11,.55,21.58,6.14,27.85,13.94,5.95-8.1,16.85-13.44,27.85-13.94,22.76-1.04,37.86,11.91,37.86,33.19,0,4.14-.74,9.49-2.11,13.19-9.73,26.34-37.42,48.18-63.59,61.59-25.65-13.05-53.86-35.24-63.59-61.59Z"/>
      <path class="cls-8" d="M36,214.02c-5.5-14.6-8.48-42.75-8.48-59.09,0-82.24,60.68-131.86,152.15-127.28,44.21,2.22,86.73,35.06,111.92,65.78,23.93-31.94,67.7-63.77,111.92-65.78,91.46-4.15,152.15,43.37,152.15,127.28,0,16.34-2.99,44.49-8.49,59.09-39.1,103.85-150.41,189.92-255.58,242.78-103.08-51.44-216.47-138.93-255.58-242.78ZM231.95,234.99c-1.28-3.47-1.98-8.48-1.98-12.37,0-19.56,14.15-32.19,35.49-31.12,10.31.52,20.23,5.76,26.11,13.07,5.58-7.6,15.79-12.6,26.11-13.07,21.34-.97,35.49,11.16,35.49,31.12,0,3.89-.7,8.9-1.98,12.37-9.12,24.7-35.09,45.17-59.62,57.74-24.05-12.23-50.5-33.04-59.62-57.74Z"/>
      <path class="cls-37" d="M36.35,214.15c-5.49-14.57-8.47-42.81-8.47-59.12,0-82.1,60.59-131.56,151.94-126.99,44.15,2.21,86.61,35.07,111.76,65.74,23.9-31.88,67.61-63.73,111.76-65.74,91.34-4.15,151.94,43.22,151.94,126.99,0,16.31-2.99,44.55-8.48,59.12-39.05,103.67-150.2,189.59-255.22,242.36-102.94-51.35-216.17-138.69-255.23-242.36ZM235.93,235.51c-1.2-3.24-1.85-7.92-1.85-11.55,0-18.25,13.21-30.04,33.13-29.04,9.62.48,18.88,5.38,24.37,12.2,5.21-7.09,14.74-11.76,24.37-12.2,19.91-.91,33.13,10.42,33.13,29.04,0,3.63-.65,8.3-1.85,11.55-8.51,23.05-32.75,42.15-55.64,53.89-22.44-11.42-47.13-30.84-55.65-53.89Z"/>
      <path class="cls-61" d="M36.7,214.28c-5.48-14.55-8.46-42.88-8.46-59.16,0-81.95,60.51-131.26,151.73-126.7,44.08,2.21,86.49,35.07,111.61,65.69,23.86-31.83,67.52-63.69,111.61-65.69,91.21-4.14,151.73,43.08,151.73,126.7,0,16.28-2.98,44.61-8.47,59.16-39,103.49-149.99,189.26-254.87,241.93-102.79-51.26-215.87-138.45-254.87-241.93ZM239.9,236.02c-1.11-3.01-1.72-7.35-1.72-10.72,0-16.95,12.27-27.9,30.76-26.97,8.94.45,17.53,4.99,22.63,11.32,4.84-6.58,13.69-10.92,22.63-11.32,18.49-.84,30.76,9.67,30.76,26.97,0,3.37-.6,7.71-1.72,10.72-7.9,21.4-30.41,39.14-51.67,50.04-20.84-10.6-43.76-28.63-51.67-50.04Z"/>
      <path class="cls-6" d="M37.05,214.4c-5.47-14.52-8.45-42.94-8.45-59.19,0-81.81,60.43-130.96,151.52-126.4,44.02,2.21,86.37,35.08,111.45,65.64,23.83-31.77,67.42-63.64,111.46-65.64,91.08-4.14,151.52,42.93,151.52,126.4,0,16.25-2.98,44.67-8.45,59.19-38.94,103.3-149.78,188.93-254.52,241.51-102.65-51.17-215.58-138.21-254.52-241.51ZM243.88,236.54c-1.03-2.78-1.58-6.79-1.58-9.9,0-15.65,11.32-25.75,28.39-24.89,8.25.41,16.19,4.61,20.89,10.45,4.47-6.08,12.63-10.08,20.89-10.45,17.07-.78,28.39,8.93,28.39,24.89,0,3.11-.56,7.12-1.58,9.9-7.3,19.76-28.07,36.13-47.7,46.19-19.24-9.79-40.4-26.43-47.7-46.19Z"/>
      <path class="cls-26" d="M37.4,214.53c-5.47-14.5-8.44-43.01-8.44-59.23,0-81.67,60.34-130.67,151.31-126.11,43.96,2.2,86.25,35.09,111.3,65.6,23.8-31.71,67.33-63.6,111.3-65.6,90.96-4.13,151.31,42.79,151.31,126.11,0,16.22-2.98,44.73-8.44,59.23-38.89,103.12-149.58,188.59-254.17,241.08-102.51-51.08-215.28-137.96-254.17-241.08ZM247.85,237.05c-.94-2.55-1.45-6.22-1.45-9.07,0-14.34,10.38-23.61,26.03-22.82,7.56.38,14.84,4.22,19.15,9.58,4.09-5.57,11.58-9.24,19.15-9.58,15.65-.71,26.03,8.19,26.03,22.82,0,2.85-.51,6.53-1.45,9.07-6.69,18.11-25.73,33.12-43.72,42.34-17.63-8.97-37.03-24.23-43.72-42.34Z"/>
      <path class="cls-32" d="M37.75,214.65c-5.46-14.47-8.43-43.07-8.43-59.26,0-81.52,60.26-130.37,151.1-125.82,43.9,2.2,86.13,35.1,111.15,65.55,23.76-31.66,67.24-63.56,111.15-65.55,90.83-4.12,151.1,42.64,151.1,125.82,0,16.2-2.97,44.79-8.43,59.26-38.83,102.94-149.37,188.26-253.82,240.66-102.37-50.99-214.98-137.72-253.82-240.66ZM251.83,237.57c-.85-2.31-1.32-5.66-1.32-8.25,0-13.04,9.44-21.46,23.66-20.74,6.87.35,13.49,3.84,17.4,8.71,3.72-5.06,10.53-8.4,17.41-8.71,14.22-.65,23.66,7.44,23.66,20.74,0,2.59-.47,5.93-1.32,8.25-6.08,16.46-23.39,30.11-39.75,38.49-16.03-8.16-33.66-22.03-39.75-38.49Z"/>
      <path class="cls-35" d="M38.11,214.78c-5.45-14.45-8.41-43.13-8.41-59.3,0-81.38,60.18-130.07,150.89-125.53,43.84,2.2,86.01,35.1,110.99,65.5,23.73-31.6,67.14-63.51,110.99-65.5,90.71-4.12,150.89,42.49,150.89,125.53,0,16.17-2.97,44.85-8.42,59.3-38.78,102.76-149.16,187.93-253.47,240.23-102.23-50.9-214.68-137.48-253.47-240.23ZM255.8,238.08c-.77-2.08-1.19-5.09-1.19-7.42,0-11.73,8.49-19.31,21.3-18.67,6.19.31,12.14,3.46,15.66,7.84,3.35-4.56,9.48-7.56,15.66-7.84,12.8-.58,21.3,6.7,21.3,18.67,0,2.33-.42,5.34-1.19,7.42-5.47,14.82-21.05,27.1-35.77,34.64-14.43-7.34-30.3-19.82-35.77-34.64Z"/>
      <path class="cls-27" d="M38.46,214.91c-5.44-14.42-8.4-43.2-8.4-59.33,0-81.23,60.09-129.77,150.68-125.23,43.78,2.19,85.89,35.11,110.84,65.46,23.7-31.55,67.05-63.47,110.84-65.46,90.58-4.11,150.68,42.35,150.68,125.23,0,16.14-2.96,44.91-8.41,59.33-38.73,102.58-148.96,187.6-253.11,239.81-102.09-50.81-214.38-137.23-253.12-239.81ZM259.77,238.6c-.68-1.85-1.06-4.53-1.06-6.6,0-10.43,7.55-17.17,18.93-16.6,5.5.28,10.79,3.07,13.92,6.97,2.98-4.05,8.42-6.72,13.92-6.97,11.38-.52,18.93,5.95,18.93,16.6,0,2.07-.37,4.75-1.06,6.6-4.86,13.17-18.71,24.09-31.8,30.79-12.82-6.52-26.93-17.62-31.8-30.79Z"/>
      <path class="cls-29" d="M38.81,215.03c-5.44-14.39-8.39-43.26-8.39-59.37,0-81.09,60.01-129.47,150.47-124.94,43.72,2.19,85.77,35.12,110.68,65.41,23.66-31.49,66.96-63.43,110.69-65.41,90.46-4.11,150.47,42.2,150.47,124.94,0,16.11-2.96,44.98-8.4,59.37-38.67,102.4-148.75,187.26-252.76,239.39-101.94-50.72-214.09-136.99-252.76-239.39ZM263.75,239.11c-.6-1.62-.92-3.96-.92-5.77,0-9.13,6.61-15.02,16.56-14.52,4.81.24,9.44,2.69,12.18,6.1,2.61-3.54,7.37-5.88,12.18-6.1,9.96-.45,16.56,5.21,16.56,14.52,0,1.81-.33,4.15-.92,5.77-4.26,11.52-16.37,21.08-27.82,26.94-11.22-5.71-23.57-15.42-27.82-26.94Z"/>
      <path class="cls-70" d="M39.16,215.16c-5.43-14.37-8.38-43.32-8.38-59.41,0-80.95,59.93-129.17,150.26-124.65,43.66,2.19,85.66,35.13,110.53,65.37,23.63-31.43,66.86-63.38,110.53-65.37,90.33-4.1,150.26,42.06,150.26,124.65,0,16.08-2.95,45.04-8.38,59.41-38.62,102.21-148.54,186.93-252.41,238.96-101.8-50.63-213.79-136.75-252.41-238.96ZM267.72,239.63c-.51-1.39-.79-3.39-.79-4.95,0-7.82,5.66-12.88,14.2-12.45,4.12.21,8.09,2.3,10.44,5.23,2.23-3.04,6.32-5.04,10.44-5.23,8.53-.39,14.2,4.46,14.2,12.45,0,1.55-.28,3.56-.79,4.95-3.65,9.88-14.03,18.07-23.85,23.09-9.62-4.89-20.2-13.22-23.85-23.09Z"/>
      <path class="cls-44" d="M39.51,215.28c-5.42-14.34-8.37-43.39-8.37-59.44,0-80.8,59.84-128.87,150.05-124.36,43.6,2.18,85.54,35.13,110.38,65.32,23.6-31.38,66.77-63.34,110.38-65.32,90.2-4.09,150.05,41.91,150.05,124.36,0,16.05-2.95,45.1-8.37,59.44-38.56,102.03-148.34,186.6-252.06,238.54-101.66-50.54-213.49-136.5-252.06-238.54ZM271.7,240.14c-.43-1.16-.66-2.83-.66-4.12,0-6.52,4.72-10.73,11.83-10.37,3.44.17,6.74,1.92,8.7,4.36,1.86-2.53,5.26-4.2,8.7-4.36,7.11-.32,11.83,3.72,11.83,10.37,0,1.3-.23,2.97-.66,4.12-3.04,8.23-11.7,15.06-19.87,19.25-8.02-4.08-16.83-11.01-19.87-19.25Z"/>
      <path class="cls-46" d="M39.86,215.41c-5.41-14.32-8.36-43.45-8.36-59.48,0-80.66,59.76-128.57,149.84-124.06,43.54,2.18,85.42,35.14,110.22,65.27,23.57-31.32,66.68-63.3,110.22-65.27,90.08-4.09,149.84,41.77,149.84,124.06,0,16.02-2.95,45.16-8.36,59.48-38.51,101.85-148.13,186.27-251.71,238.11-101.52-50.45-213.19-136.26-251.71-238.11ZM275.67,240.66c-.34-.93-.53-2.26-.53-3.3,0-5.22,3.77-8.58,9.46-8.3,2.75.14,5.4,1.54,6.96,3.48,1.49-2.03,4.21-3.36,6.96-3.48,5.69-.26,9.46,2.98,9.46,8.3,0,1.04-.19,2.37-.53,3.3-2.43,6.59-9.36,12.04-15.9,15.4-6.41-3.26-13.47-8.81-15.9-15.4Z"/>
      <path class="cls-38" d="M40.21,215.54c-5.41-14.29-8.34-43.52-8.34-59.51,0-80.51,59.68-128.27,149.63-123.77,43.48,2.18,85.3,35.15,110.07,65.23,23.53-31.27,66.58-63.25,110.07-65.23,89.95-4.08,149.63,41.62,149.63,123.77,0,15.99-2.94,45.22-8.35,59.51-38.46,101.67-147.92,185.93-251.36,237.69-101.38-50.36-212.9-136.02-251.36-237.69ZM279.65,241.17c-.26-.69-.4-1.7-.4-2.47,0-3.91,2.83-6.44,7.1-6.22,2.06.1,4.05,1.15,5.22,2.61,1.12-1.52,3.16-2.52,5.22-2.61,4.27-.19,7.1,2.23,7.1,6.22,0,.78-.14,1.78-.4,2.47-1.82,4.94-7.02,9.03-11.92,11.55-4.81-2.45-10.1-6.61-11.92-11.55Z"/>
      <path class="cls-13" d="M40.57,215.66c-5.4-14.27-8.33-43.58-8.33-59.55,0-80.37,59.59-127.97,149.43-123.48,43.42,2.17,85.18,35.16,109.91,65.18,23.5-31.21,66.49-63.21,109.92-65.18,89.83-4.08,149.43,41.47,149.43,123.48,0,15.97-2.94,45.28-8.34,59.55-38.4,101.49-147.72,185.6-251,237.26-101.23-50.27-212.6-135.78-251.01-237.26ZM283.62,241.69c-.17-.46-.26-1.13-.26-1.65,0-2.61,1.89-4.29,4.73-4.15,1.37.07,2.7.77,3.48,1.74.74-1.01,2.11-1.68,3.48-1.74,2.84-.13,4.73,1.49,4.73,4.15,0,.52-.09,1.19-.26,1.65-1.22,3.29-4.68,6.02-7.95,7.7-3.21-1.63-6.73-4.41-7.95-7.7Z"/>
      <path class="cls-51" d="M40.92,215.79c-5.39-14.24-8.32-43.64-8.32-59.58,0-80.23,59.51-127.67,149.22-123.19,43.35,2.17,85.06,35.16,109.76,65.13,23.47-31.16,66.4-63.17,109.76-65.13,89.7-4.07,149.22,41.33,149.22,123.19,0,15.94-2.93,45.34-8.33,59.58-38.35,101.31-147.51,185.27-250.65,236.84-101.09-50.18-212.3-135.53-250.66-236.84ZM287.6,242.2c-.09-.23-.13-.57-.13-.82,0-1.3.94-2.15,2.37-2.07.69.03,1.35.38,1.74.87.37-.51,1.05-.84,1.74-.87,1.42-.06,2.37.74,2.37,2.07,0,.26-.05.59-.13.82-.61,1.65-2.34,3.01-3.97,3.85-1.6-.82-3.37-2.2-3.97-3.85Z"/>
      <path class="cls-55" d="M41.27,215.91c-5.38-14.22-8.31-43.71-8.31-59.62,0-80.08,59.43-127.37,149.01-122.89,43.29,2.17,84.94,35.17,109.61,65.09,23.43-31.1,66.3-63.12,109.61-65.09,89.57-4.06,149.01,41.18,149.01,122.89,0,15.91-2.93,45.4-8.31,59.62-38.3,101.12-147.3,184.94-250.3,236.41-100.95-50.09-212-135.29-250.3-236.41Z"/>
    </g>
  </g>
</svg>